<svg xmlns="http://www.w3.org/2000/svg" width="197" height="31" viewBox="0 0 197 31">
    <g fill="none" fill-rule="evenodd">
        <path fill="#1C4B81" fill-rule="nonzero" d="M87.696 24h-2.448v-8.946L81.576 24h-2.07l-3.672-8.874V24h-2.376V11.238h3.276l3.834 9.216 3.744-9.216h3.384V24zm6.66-1.908c1.17 0 2.25-.846 2.25-2.52s-1.08-2.52-2.25-2.52-2.25.846-2.25 2.52c0 1.656 1.08 2.52 2.25 2.52zm0-7.218c2.646 0 4.644 1.962 4.644 4.698 0 2.718-1.998 4.698-4.644 4.698s-4.644-1.98-4.644-4.698c0-2.736 1.998-4.698 4.644-4.698zm14.976-3.906v11.43c0 .594.036 1.242.072 1.602h-2.286a6.114 6.114 0 0 1-.09-1.026c-.396.702-1.296 1.242-2.484 1.242-2.52 0-4.32-1.98-4.32-4.662 0-2.592 1.746-4.626 4.248-4.626 1.53 0 2.25.63 2.502 1.098v-5.058h2.358zm-6.696 8.586c0 1.584.936 2.52 2.196 2.52 1.224 0 2.178-.936 2.178-2.538 0-1.584-.954-2.466-2.178-2.466s-2.196.9-2.196 2.484zm11.034-.99h3.96c-.036-.882-.612-1.746-1.98-1.746-1.242 0-1.926.936-1.98 1.746zm4.194 2.304l1.998.594c-.45 1.53-1.854 2.808-4.032 2.808-2.43 0-4.572-1.746-4.572-4.734 0-2.826 2.088-4.662 4.356-4.662 2.736 0 4.374 1.746 4.374 4.59 0 .342-.036.702-.036.738h-6.336c.054 1.17 1.044 2.016 2.232 2.016 1.116 0 1.728-.558 2.016-1.35zm9.414-5.76v2.412a3.605 3.605 0 0 0-.72-.072c-1.224 0-2.286.594-2.286 2.502V24h-2.394v-8.856h2.322v1.314c.54-1.17 1.764-1.386 2.52-1.386.198 0 .378.018.558.036zm4.086 3.798V24h-2.394v-8.856h2.322v1.098c.54-.918 1.602-1.332 2.556-1.332 2.196 0 3.204 1.566 3.204 3.51V24h-2.394v-5.166c0-.99-.486-1.764-1.638-1.764-1.044 0-1.656.81-1.656 1.836zM154.656 24h-2.502v-5.292h-5.562V24h-2.484V11.238h2.484v5.13h5.562v-5.13h2.502V24zm4.428-5.436h3.96c-.036-.882-.612-1.746-1.98-1.746-1.242 0-1.926.936-1.98 1.746zm4.194 2.304l1.998.594c-.45 1.53-1.854 2.808-4.032 2.808-2.43 0-4.572-1.746-4.572-4.734 0-2.826 2.088-4.662 4.356-4.662 2.736 0 4.374 1.746 4.374 4.59 0 .342-.036.702-.036.738h-6.336c.054 1.17 1.044 2.016 2.232 2.016 1.116 0 1.728-.558 2.016-1.35zm3.474.72c0-1.584 1.17-2.466 2.646-2.682l2.178-.324c.504-.072.666-.324.666-.63 0-.63-.486-1.152-1.494-1.152-1.044 0-1.62.666-1.692 1.44l-2.124-.45c.144-1.386 1.422-2.916 3.798-2.916 2.808 0 3.852 1.584 3.852 3.366v4.356c0 .468.054 1.098.108 1.404h-2.196c-.054-.234-.09-.72-.09-1.062-.45.702-1.296 1.314-2.61 1.314-1.89 0-3.042-1.278-3.042-2.664zm3.546.882c1.008 0 1.944-.486 1.944-2.052v-.396l-1.998.306c-.612.09-1.098.432-1.098 1.116 0 .522.378 1.026 1.152 1.026zm9.09 1.53h-2.394V10.968h2.394V24zm5.508-11.502v2.646h1.782v2.124h-1.782v3.708c0 .774.36 1.026 1.044 1.026.288 0 .612-.036.738-.072v1.98c-.216.09-.648.216-1.35.216-1.728 0-2.808-1.026-2.808-2.736v-4.122h-1.602v-2.124h.45c.936 0 1.368-.612 1.368-1.404v-1.242h2.16zm5.778 6.3V24h-2.394V10.968h2.394v4.914c.576-.684 1.548-.972 2.394-.972 2.25 0 3.294 1.566 3.294 3.51V24h-2.394v-5.166c0-.99-.486-1.764-1.638-1.764-1.008 0-1.602.756-1.656 1.728z"/>
        <g fill="#4C7DE0">
            <path d="M36.23 2.034l14.64 26.052A1.956 1.956 0 0 1 49.167 31H16.543L32.821 2.034a1.956 1.956 0 0 1 3.41 0z"/>
            <path d="M18.756 1.886l6.045 10.55-10.514 18.46H2.402a1.956 1.956 0 0 1-1.704-2.914L15.354 1.9a1.956 1.956 0 0 1 3.402-.014z" opacity=".732"/>
        </g>
    </g>
</svg>
